<svg width="108" height="42" viewBox="0 0 108 42" fill="none" xmlns="http://www.w3.org/2000/svg">
<path d="M4.26846 17.7693H2.19873V4.83972H7.905C8.35634 4.83972 8.7561 4.85911 9.10428 4.89787C9.45246 4.93664 9.76195 4.9948 10.0328 5.07234C10.3036 5.14987 10.5486 5.25972 10.7678 5.40187C10.987 5.53111 11.1998 5.69264 11.4061 5.88649C12.1412 6.61018 12.5087 7.61818 12.5087 8.91049C12.5087 9.6471 12.3797 10.3126 12.1218 10.9071C11.8768 11.4886 11.5286 11.9603 11.0773 12.3222C10.7291 12.5936 10.2778 12.7874 9.72327 12.9037C9.18166 13.02 8.44661 13.0782 7.51813 13.0782H4.26846V17.7693ZM7.65354 11.4305C8.18225 11.4305 8.60136 11.3853 8.91085 11.2948C9.23324 11.2043 9.4976 11.0493 9.70393 10.8296C9.88446 10.6357 10.0263 10.3643 10.1295 10.0154C10.2455 9.65357 10.3036 9.27234 10.3036 8.87172C10.3036 8.47111 10.2391 8.10926 10.1101 7.78618C9.99407 7.45018 9.82643 7.1788 9.60721 6.97203C9.42667 6.79111 9.17521 6.66834 8.85282 6.60372C8.54333 6.52618 8.11778 6.48741 7.57616 6.48741H4.26846V11.4305H7.65354ZM16.4148 17.7693H14.345V4.83972H20.2254C21.1539 4.83972 21.9018 4.90434 22.4692 5.03357C23.0366 5.14987 23.5073 5.33726 23.8813 5.59572C24.2939 5.90587 24.6163 6.31295 24.8484 6.81695C25.0934 7.30803 25.2159 7.84434 25.2159 8.42587C25.2159 8.98157 25.1192 9.49203 24.9258 9.95726C24.7324 10.4096 24.4487 10.7843 24.0747 11.0816C23.8555 11.2625 23.6362 11.4046 23.417 11.508C23.1978 11.6114 22.9012 11.7148 22.5272 11.8182C22.9528 12.012 23.3074 12.2188 23.5911 12.4385C23.8877 12.6453 24.1263 12.8973 24.3068 13.1945C24.4874 13.4917 24.6228 13.8536 24.713 14.28C24.8033 14.7065 24.8678 15.217 24.9065 15.8114C24.9322 16.1991 24.9516 16.4963 24.9645 16.7031C24.9774 16.9099 24.9967 17.0779 25.0225 17.2071C25.0483 17.3234 25.0741 17.4203 25.0999 17.4979C25.1386 17.5754 25.1902 17.6659 25.2546 17.7693H23.1269C23.0882 17.6788 23.0559 17.6077 23.0302 17.556C23.0173 17.5043 22.9979 17.3945 22.9721 17.2265C22.9463 16.9034 22.927 16.6579 22.9141 16.4899C22.9012 16.3219 22.8819 16.128 22.8561 15.9083C22.7916 15.2363 22.6691 14.6677 22.4885 14.2025C22.308 13.7373 22.0436 13.369 21.6955 13.0976C21.3602 12.8133 20.9282 12.613 20.3995 12.4966C19.8708 12.3674 19.226 12.3028 18.4651 12.3028H16.4148V17.7693ZM20.09 10.6551C20.6961 10.6551 21.1668 10.6228 21.502 10.5582C21.8502 10.4936 22.121 10.3837 22.3145 10.2286C22.7916 9.84095 23.0302 9.28526 23.0302 8.56157C23.0302 8.14803 22.9528 7.77972 22.798 7.45664C22.6562 7.13357 22.4434 6.89449 22.1597 6.73941C21.9792 6.64895 21.7342 6.58434 21.4247 6.54557C21.1281 6.5068 20.6832 6.48741 20.09 6.48741H16.4148V10.6551H20.09ZM33.029 4.64587C37.0524 4.64587 39.0641 6.85572 39.0641 11.2754C39.0641 12.5419 38.9094 13.6016 38.5999 14.4545C38.3033 15.2945 37.8326 15.9923 37.1878 16.548C36.0659 17.4914 34.5765 17.9631 32.7195 17.9631C31.6105 17.9631 30.6369 17.7951 29.7987 17.4591C28.9734 17.1231 28.3157 16.632 27.8257 15.9859C27.6322 15.7403 27.4582 15.4431 27.3034 15.0942C27.1487 14.7453 27.0133 14.3705 26.8972 13.9699C26.794 13.5563 26.7102 13.1299 26.6457 12.6905C26.5942 12.2382 26.5684 11.7859 26.5684 11.3336C26.5684 10.3385 26.7038 9.41449 26.9746 8.56157C27.2454 7.69572 27.6129 7.00434 28.0771 6.48741C28.6445 5.85418 29.328 5.38895 30.1275 5.09172C30.9271 4.79449 31.8942 4.64587 33.029 4.64587ZM32.8356 6.29357C31.9587 6.29357 31.2172 6.46157 30.6111 6.79757C30.005 7.13357 29.5537 7.61818 29.2571 8.25141C29.1023 8.60034 28.9798 9.04618 28.8896 9.58895C28.7993 10.1188 28.7542 10.6874 28.7542 11.2948C28.7542 13.0523 29.0765 14.3317 29.7213 15.133C30.379 15.9213 31.4235 16.3154 32.8549 16.3154C34.6861 16.3154 35.8854 15.6499 36.4528 14.3188C36.5817 14.0216 36.6849 13.608 36.7623 13.0782C36.8397 12.5354 36.8783 11.9733 36.8783 11.3917C36.8783 10.5905 36.8139 9.87326 36.6849 9.24003C36.556 8.59387 36.369 8.09634 36.124 7.74741C35.4792 6.77818 34.3831 6.29357 32.8356 6.29357ZM39.8159 16.1216H42.3112C43.0978 16.1216 43.7233 16.0828 44.1875 16.0053C44.6647 15.9277 45.0257 15.7597 45.2707 15.5013C45.5158 15.2428 45.6705 14.868 45.735 14.377C45.8124 13.8859 45.851 13.2268 45.851 12.3997V4.83972H47.9208V12.3997C47.9208 13.0459 47.9014 13.5951 47.8627 14.0474C47.837 14.4868 47.7789 14.868 47.6887 15.1911C47.5984 15.5013 47.4823 15.7726 47.3405 16.0053C47.1986 16.225 47.0116 16.4382 46.7795 16.645C46.5345 16.8646 46.283 17.0456 46.0251 17.1877C45.7672 17.3299 45.4642 17.4462 45.116 17.5366C44.7807 17.6271 44.3874 17.6917 43.9361 17.7305C43.4847 17.7563 42.9431 17.7693 42.3112 17.7693H39.8159V16.1216ZM59.7842 6.48741H56.0316C55.5673 6.48741 55.1611 6.51326 54.813 6.56495C54.4648 6.61664 54.1553 6.7071 53.8845 6.83634C53.6266 6.95264 53.4009 7.10772 53.2075 7.30157C53.014 7.49541 52.8335 7.73449 52.6658 8.0188C52.5627 8.1868 52.4789 8.3548 52.4144 8.5228C52.3499 8.67787 52.2919 8.84587 52.2403 9.0268C52.2016 9.20772 52.1694 9.41449 52.1436 9.64711C52.1178 9.87972 52.0984 10.1446 52.0855 10.4419H59.7842V12.0896H52.0662C52.0791 13.0588 52.2854 13.8988 52.6852 14.6096C53.0076 15.1653 53.4073 15.5594 53.8845 15.792C54.3745 16.0117 55.0515 16.1216 55.9155 16.1216H59.7842V17.7693H55.548C54.9806 17.7693 54.4712 17.7369 54.0199 17.6723C53.5685 17.6077 53.1623 17.5043 52.8013 17.3622C52.4531 17.22 52.1307 17.0391 51.8341 16.8194C51.5504 16.5868 51.286 16.3025 51.041 15.9665C50.6026 15.385 50.2866 14.7517 50.0932 14.0668C49.8998 13.369 49.803 12.5354 49.803 11.5662C49.803 8.9428 50.5574 7.03664 52.0662 5.84772C52.5175 5.4988 53.0656 5.2468 53.7104 5.09172C54.3681 4.92372 55.1805 4.83972 56.1476 4.83972H59.7842V6.48741ZM71.7132 17.7693H67.7091C67.103 17.7693 66.5614 17.7434 66.0843 17.6917C65.62 17.64 65.1945 17.556 64.8076 17.4397C64.4337 17.3234 64.0984 17.1748 63.8018 16.9939C63.5052 16.8 63.2279 16.5674 62.97 16.296C62.4542 15.7533 62.048 15.0554 61.7514 14.2025C61.4677 13.3366 61.3258 12.3997 61.3258 11.3917C61.3258 10.7843 61.3774 10.1963 61.4806 9.62772C61.5966 9.05911 61.7514 8.52926 61.9448 8.03818C62.1511 7.5471 62.3962 7.10772 62.6799 6.72003C62.9765 6.31941 63.2988 5.98987 63.647 5.73141C64.0855 5.42126 64.6206 5.1951 65.2525 5.05295C65.8844 4.9108 66.6646 4.83972 67.5931 4.83972H71.7132V6.48741H67.7091C67.2578 6.48741 66.8645 6.5068 66.5292 6.54557C66.2068 6.57141 65.9231 6.62957 65.6781 6.72003C65.4331 6.79757 65.2203 6.90095 65.0397 7.03018C64.8592 7.15941 64.6916 7.32095 64.5368 7.5148C64.2144 7.92834 63.963 8.48403 63.7824 9.18187C63.6019 9.87972 63.5116 10.6357 63.5116 11.4499C63.5116 12.264 63.6148 12.9877 63.8211 13.621C64.0274 14.2542 64.3176 14.7776 64.6916 15.1911C64.8592 15.372 65.0333 15.5206 65.2138 15.637C65.4073 15.7533 65.6265 15.8502 65.8715 15.9277C66.1294 15.9923 66.4196 16.044 66.742 16.0828C67.0643 16.1086 67.4448 16.1216 67.8832 16.1216H71.7132V17.7693ZM72.4379 6.48741V4.83972H83.4249V6.48741H78.9759V17.7693H76.9062V6.48741H72.4379ZM89.7347 4.83972H91.8044V17.7693H89.7347V4.83972ZM106.563 17.7693H102.849C102.785 17.7693 102.643 17.7693 102.424 17.7693C102.218 17.7693 101.953 17.7757 101.631 17.7886H100.722C100.128 17.7886 99.5997 17.7693 99.1355 17.7305C98.6842 17.6917 98.2715 17.6271 97.8975 17.5366C97.5365 17.4333 97.2012 17.3105 96.8917 17.1683C96.5951 17.0262 96.3114 16.8453 96.0406 16.6256C95.3313 16.057 94.7833 15.3268 94.3964 14.4351C94.0224 13.5434 93.8354 12.5419 93.8354 11.4305C93.8354 10.3708 93.9773 9.42095 94.261 8.58095C94.5576 7.74095 94.9767 7.03018 95.5183 6.44864C96.0599 5.86711 96.724 5.42126 97.5107 5.1111C98.2973 4.80095 99.1871 4.64587 100.18 4.64587C102.114 4.64587 103.604 5.20157 104.648 6.31295C105.706 7.41141 106.234 8.98157 106.234 11.0234C106.234 11.605 106.196 12.1348 106.118 12.613C106.054 13.0782 105.938 13.5176 105.77 13.9311C105.616 14.3317 105.409 14.713 105.151 15.0748C104.906 15.4237 104.603 15.7726 104.242 16.1216H106.563V17.7693ZM100.045 6.29357C99.387 6.29357 98.7809 6.40987 98.2264 6.64249C97.6719 6.8751 97.2399 7.19818 96.9304 7.61172C96.6338 7.98649 96.4081 8.49695 96.2534 9.14311C96.0986 9.78926 96.0212 10.5194 96.0212 11.3336C96.0212 12.0573 96.0922 12.7163 96.234 13.3108C96.3888 13.9053 96.6144 14.4093 96.911 14.8228C97.2076 15.2493 97.6461 15.5788 98.2264 15.8114C98.8067 16.044 99.4772 16.1603 100.238 16.1603C100.96 16.1603 101.566 16.0376 102.056 15.792C102.546 15.5465 102.953 15.1523 103.275 14.6096C103.791 13.7566 104.049 12.6905 104.049 11.4111C104.049 9.67941 103.72 8.39357 103.062 7.55357C102.417 6.71357 101.412 6.29357 100.045 6.29357Z" fill="#F77100"/>
<path d="M0.806152 24.2307H107.194" stroke="#4B3035"/>
<path d="M0.773848 37.6708H4.48776C4.81445 37.6708 5.07236 37.6535 5.26149 37.6191C5.45062 37.5847 5.61397 37.5243 5.75152 37.4382C6.11259 37.2228 6.29313 36.861 6.29313 36.3526C6.29313 36.0252 6.22435 35.7538 6.0868 35.5385C5.95785 35.3144 5.76872 35.1637 5.5194 35.0862C5.39904 35.0517 5.24429 35.0301 5.05516 35.0215C4.86603 35.0043 4.59092 34.9957 4.22985 34.9957H3.52059C2.97898 34.9957 2.53623 34.9613 2.19236 34.8923C1.84848 34.8233 1.56477 34.7114 1.34125 34.5563C1.05755 34.3668 0.838326 34.1169 0.683579 33.8068C0.53743 33.4966 0.464355 33.1433 0.464355 32.7471C0.464355 32.256 0.571819 31.8166 0.786744 31.4289C1.01027 31.0412 1.31546 30.7354 1.70233 30.5114C1.94304 30.3822 2.22245 30.2917 2.54053 30.24C2.86723 30.1797 3.28847 30.1495 3.8043 30.1495H7.33767V31.248H3.8043C3.42602 31.248 3.13373 31.2695 2.9274 31.3126C2.72966 31.347 2.55773 31.4074 2.41158 31.4935C2.26542 31.5969 2.14508 31.7434 2.0505 31.9329C1.96454 32.1138 1.92155 32.3206 1.92155 32.5532C1.92155 32.9926 2.0634 33.3028 2.3471 33.4837C2.63939 33.6646 3.12514 33.7551 3.8043 33.7551H4.32012C4.69839 33.7551 5.02078 33.7636 5.28728 33.7809C5.56239 33.7982 5.7988 33.8283 5.99653 33.8714C6.20286 33.9058 6.37481 33.9575 6.51236 34.0265C6.65851 34.0867 6.79175 34.1643 6.91212 34.2591C7.17862 34.4831 7.38495 34.7716 7.5311 35.1249C7.67726 35.4782 7.75033 35.8701 7.75033 36.3009C7.75033 36.8093 7.64286 37.2487 7.42794 37.6191C7.21302 37.9895 6.90352 38.2738 6.49946 38.472C6.3791 38.5323 6.25445 38.5839 6.12549 38.6271C5.99653 38.6615 5.84609 38.6917 5.67415 38.7175C5.51081 38.7348 5.31738 38.7477 5.09385 38.7563C4.87893 38.7649 4.62102 38.7692 4.32012 38.7692H0.773848V37.6708ZM17.2377 31.248H14.7361C14.4266 31.248 14.1558 31.2653 13.9237 31.2997C13.6915 31.3341 13.4852 31.3945 13.3047 31.4806C13.1327 31.5582 12.9823 31.6615 12.8533 31.7908C12.7244 31.92 12.604 32.0794 12.4923 32.2689C12.4235 32.3809 12.3676 32.493 12.3246 32.6049C12.2816 32.7083 12.2429 32.8203 12.2085 32.9409C12.1828 33.0616 12.1613 33.1994 12.1441 33.3545C12.1269 33.5095 12.114 33.6861 12.1054 33.8843H17.2377V34.9828H12.0925C12.1011 35.6289 12.2386 36.189 12.5051 36.6628C12.7201 37.0332 12.9866 37.296 13.3047 37.4511C13.6314 37.5976 14.0827 37.6708 14.6587 37.6708H17.2377V38.7692H14.4137C14.0354 38.7692 13.6958 38.7477 13.3949 38.7046C13.094 38.6615 12.8232 38.5927 12.5825 38.4978C12.3504 38.403 12.1355 38.2825 11.9377 38.136C11.7486 37.9809 11.5724 37.7914 11.409 37.5674C11.1167 37.1797 10.9061 36.7576 10.7771 36.3009C10.6482 35.8357 10.5837 35.28 10.5837 34.6338C10.5837 32.8849 11.0866 31.6142 12.0925 30.8215C12.3934 30.5889 12.7588 30.4209 13.1886 30.3175C13.6271 30.2056 14.1687 30.1495 14.8134 30.1495H17.2377V31.248ZM22.0698 38.7692H20.69V30.1495H24.6103C25.2292 30.1495 25.7278 30.1927 26.1061 30.2788C26.4843 30.3563 26.7981 30.4812 27.0475 30.6535C27.3225 30.8603 27.5375 31.1317 27.6923 31.4677C27.8556 31.7951 27.9373 32.1526 27.9373 32.5403C27.9373 32.9107 27.8728 33.2511 27.7439 33.5612C27.6149 33.8628 27.4257 34.1126 27.1765 34.3108C27.0303 34.4314 26.8841 34.5261 26.738 34.5951C26.5918 34.6641 26.394 34.7329 26.1448 34.8018C26.4285 34.9311 26.6648 35.0689 26.8541 35.2154C27.0517 35.3532 27.2108 35.5212 27.3312 35.7194C27.4515 35.9176 27.5417 36.1588 27.602 36.4431C27.6621 36.7274 27.7052 37.0677 27.731 37.464C27.7481 37.7225 27.761 37.9207 27.7697 38.0585C27.7782 38.1963 27.7911 38.3084 27.8083 38.3945C27.8254 38.472 27.8427 38.5366 27.8599 38.5883C27.8857 38.64 27.9201 38.7003 27.9631 38.7692H26.5446C26.5188 38.709 26.4972 38.6615 26.4801 38.6271C26.4714 38.5927 26.4585 38.5193 26.4414 38.4074C26.4242 38.1921 26.4113 38.0283 26.4027 37.9163C26.394 37.8044 26.3811 37.6751 26.364 37.5286C26.321 37.0807 26.2393 36.7015 26.119 36.3914C25.9986 36.0812 25.8224 35.8357 25.5903 35.6548C25.3667 35.4653 25.0787 35.3317 24.7263 35.2542C24.3738 35.1681 23.9439 35.1249 23.4368 35.1249H22.0698V38.7692ZM24.52 34.0265C24.9239 34.0265 25.2378 34.005 25.4614 33.9618C25.6935 33.9187 25.874 33.8455 26.003 33.7422C26.321 33.4837 26.4801 33.1133 26.4801 32.6308C26.4801 32.355 26.4285 32.1095 26.3254 31.8942C26.2307 31.6788 26.0889 31.5194 25.8998 31.416C25.7794 31.3557 25.6161 31.3126 25.4098 31.2868C25.212 31.2609 24.9154 31.248 24.52 31.248H22.0698V34.0265H24.52ZM35.5608 38.7692H33.9231L30.235 30.1495H31.8211L34.7613 37.4769L37.7402 30.1495H39.2231L35.5608 38.7692ZM42.1388 30.1495H43.5186V38.7692H42.1388V30.1495ZM53.7319 38.7692H51.0625C50.6586 38.7692 50.2975 38.7519 49.9793 38.7175C49.6698 38.6831 49.3861 38.6271 49.1282 38.5495C48.879 38.472 48.6554 38.373 48.4576 38.2523C48.26 38.1231 48.0751 37.968 47.9031 37.7871C47.5593 37.4252 47.2885 36.96 47.0907 36.3914C46.9016 35.8142 46.807 35.1895 46.807 34.5175C46.807 34.1126 46.8415 33.7207 46.9102 33.3415C46.9875 32.9624 47.0907 32.6093 47.2197 32.2818C47.3573 31.9544 47.5206 31.6615 47.7097 31.4031C47.9075 31.1361 48.1223 30.9164 48.3545 30.744C48.6469 30.5372 49.0036 30.3865 49.4248 30.2917C49.8461 30.1969 50.3662 30.1495 50.9851 30.1495H53.7319V31.248H51.0625C50.7617 31.248 50.4995 31.2609 50.2759 31.2868C50.061 31.3041 49.8719 31.3428 49.7085 31.4031C49.5452 31.4548 49.4033 31.5237 49.2829 31.6098C49.1627 31.6959 49.0508 31.8037 48.9477 31.9329C48.7328 32.2087 48.5651 32.5791 48.4447 33.0443C48.3245 33.5095 48.2642 34.0135 48.2642 34.5563C48.2642 35.0991 48.333 35.5816 48.4705 36.0037C48.6082 36.4258 48.8016 36.7747 49.0508 37.0505C49.1627 37.1711 49.2787 37.2702 49.399 37.3477C49.5279 37.4252 49.6742 37.4898 49.8374 37.5415C50.0094 37.5847 50.2029 37.6191 50.4177 37.6449C50.6328 37.6622 50.8863 37.6708 51.1786 37.6708H53.7319V38.7692ZM63.2033 31.248H60.7016C60.3921 31.248 60.1213 31.2653 59.8892 31.2997C59.6571 31.3341 59.4507 31.3945 59.2702 31.4806C59.0982 31.5582 58.9478 31.6615 58.8189 31.7908C58.6899 31.92 58.5695 32.0794 58.4578 32.2689C58.3889 32.3809 58.333 32.493 58.2901 32.6049C58.2471 32.7083 58.2084 32.8203 58.1741 32.9409C58.1483 33.0616 58.1267 33.1994 58.1096 33.3545C58.0924 33.5095 58.0795 33.6861 58.0709 33.8843H63.2033V34.9828H58.058C58.0666 35.6289 58.2041 36.189 58.4707 36.6628C58.6855 37.0332 58.952 37.296 59.2702 37.4511C59.5968 37.5976 60.0481 37.6708 60.6242 37.6708H63.2033V38.7692H60.3792C60.0009 38.7692 59.6613 38.7477 59.3605 38.7046C59.0595 38.6615 58.7887 38.5927 58.548 38.4978C58.3159 38.403 58.1009 38.2825 57.9033 38.136C57.714 37.9809 57.5378 37.7914 57.3746 37.5674C57.0821 37.1797 56.8716 36.7576 56.7427 36.3009C56.6137 35.8357 56.5492 35.28 56.5492 34.6338C56.5492 32.8849 57.0522 31.6142 58.058 30.8215C58.3588 30.5889 58.7242 30.4209 59.1541 30.3175C59.5926 30.2056 60.1342 30.1495 60.779 30.1495H63.2033V31.248ZM66.5007 37.6708H70.2146C70.5414 37.6708 70.7993 37.6535 70.9884 37.6191C71.1774 37.5847 71.3409 37.5243 71.4784 37.4382C71.8395 37.2228 72.02 36.861 72.02 36.3526C72.02 36.0252 71.9512 35.7538 71.8137 35.5385C71.6847 35.3144 71.4956 35.1637 71.2463 35.0862C71.1259 35.0517 70.9711 35.0301 70.782 35.0215C70.5929 35.0043 70.3178 34.9957 69.9567 34.9957H69.2475C68.7058 34.9957 68.263 34.9613 67.9192 34.8923C67.5754 34.8233 67.2917 34.7114 67.0681 34.5563C66.7844 34.3668 66.5652 34.1169 66.4104 33.8068C66.2642 33.4966 66.1912 33.1433 66.1912 32.7471C66.1912 32.256 66.2987 31.8166 66.5136 31.4289C66.7372 31.0412 67.0423 30.7354 67.4292 30.5114C67.6699 30.3822 67.9494 30.2917 68.2674 30.24C68.5941 30.1797 69.0153 30.1495 69.5312 30.1495H73.0645V31.248H69.5312C69.1528 31.248 68.8606 31.2695 68.6543 31.3126C68.4565 31.347 68.2847 31.4074 68.1384 31.4935C67.9922 31.5969 67.872 31.7434 67.7774 31.9329C67.6915 32.1138 67.6484 32.3206 67.6484 32.5532C67.6484 32.9926 67.7903 33.3028 68.074 33.4837C68.3662 33.6646 68.8521 33.7551 69.5312 33.7551H70.047C70.4253 33.7551 70.7477 33.7636 71.0141 33.7809C71.2893 33.7982 71.5256 33.8283 71.7234 33.8714C71.9297 33.9058 72.1017 33.9575 72.2392 34.0265C72.3854 34.0867 72.5186 34.1643 72.639 34.2591C72.9054 34.4831 73.1118 34.7716 73.258 35.1249C73.4042 35.4782 73.4772 35.8701 73.4772 36.3009C73.4772 36.8093 73.3697 37.2487 73.1548 37.6191C72.9399 37.9895 72.6304 38.2738 72.2263 38.472C72.1059 38.5323 71.9813 38.5839 71.8524 38.6271C71.7234 38.6615 71.573 38.6917 71.401 38.7175C71.2377 38.7348 71.0443 38.7477 70.8207 38.7563C70.6058 38.7649 70.3479 38.7692 70.047 38.7692H66.5007V37.6708ZM83.2354 30.1495V35.1637C83.2354 35.7065 83.2655 36.12 83.3257 36.4043C83.3859 36.6886 83.4891 36.9169 83.6352 37.0892C83.9877 37.4769 84.6067 37.6708 85.4921 37.6708H87.3362V38.7692H85.2213C84.5594 38.7692 84.022 38.7046 83.6094 38.5754C83.1967 38.4376 82.8443 38.2092 82.5519 37.8905C82.423 37.7527 82.3113 37.6062 82.2167 37.4511C82.1307 37.2874 82.0619 37.1065 82.0103 36.9083C81.9587 36.7015 81.9201 36.4689 81.8943 36.2105C81.8685 35.952 81.8556 35.6591 81.8556 35.3317V30.1495H83.2354ZM88.28 31.248V30.1495H95.6046V31.248H92.6386V38.7692H91.2588V31.248H88.28ZM101.823 30.1495C102.27 30.1495 102.657 30.1668 102.983 30.2012C103.31 30.2271 103.594 30.2788 103.835 30.3563C104.084 30.4253 104.303 30.5243 104.492 30.6535C104.681 30.7742 104.866 30.9293 105.047 31.1188C105.425 31.515 105.7 31.9761 105.872 32.5015C106.044 33.0185 106.13 33.6431 106.13 34.3754C106.13 35.3575 105.992 36.1803 105.717 36.8437C105.442 37.4984 105.034 37.9853 104.492 38.304C104.337 38.3988 104.183 38.4764 104.028 38.5366C103.873 38.5969 103.701 38.6444 103.512 38.6788C103.323 38.7132 103.104 38.739 102.854 38.7563C102.605 38.7649 102.304 38.7692 101.952 38.7692H98.5216V30.1495H101.823ZM99.9014 37.6708H102.094C102.618 37.6708 103.044 37.6018 103.37 37.464C103.706 37.3175 103.972 37.0849 104.17 36.7662C104.342 36.5163 104.466 36.2061 104.544 35.8357C104.63 35.4566 104.673 35.0345 104.673 34.5692C104.673 34.0092 104.612 33.5052 104.492 33.0572C104.38 32.6093 104.221 32.2474 104.015 31.9717C103.817 31.7132 103.564 31.5279 103.254 31.416C102.945 31.3041 102.528 31.248 102.003 31.248H99.9014V37.6708Z" fill="#4B3035"/>
</svg>
